<?xml version="1.0" encoding="UTF-8"?>
<svg xmlns="http://www.w3.org/2000/svg" viewBox="0 0 1200 800">
  <defs>
    <linearGradient id="bg" x1="0" y1="0" x2="1" y2="1">
      <stop offset="0%" stop-color="#0ea5e9" stop-opacity="0.25"/>
      <stop offset="100%" stop-color="#22d3ee" stop-opacity="0.15"/>
    </linearGradient>
  </defs>
  <rect width="1200" height="800" rx="24" fill="url(#bg)"/>
  <!-- Vending frame -->
  <rect x="140" y="100" width="440" height="600" rx="24" fill="#0b1220" stroke="#1f2a44" stroke-width="4"/>
  <!-- Shelves -->
  <g stroke="#22d3ee" stroke-width="10" stroke-linecap="round">
    <line x1="180" y1="220" x2="560" y2="220"/>
    <line x1="180" y1="300" x2="560" y2="300"/>
    <line x1="180" y1="380" x2="560" y2="380"/>
    <line x1="180" y1="460" x2="560" y2="460"/>
    <line x1="180" y1="540" x2="560" y2="540"/>
    <line x1="180" y1="620" x2="480" y2="620"/>
  </g>
  <!-- Coffee frame -->
  <rect x="700" y="170" width="360" height="460" rx="24" fill="#0b1220" stroke="#1f2a44" stroke-width="4"/>
  <rect x="740" y="210" width="280" height="28" rx="14" fill="#34d399"/>
  <rect x="740" y="260" width="280" height="28" rx="14" fill="#22d3ee"/>
  <rect x="760" y="310" width="240" height="28" rx="14" fill="#94a3b8"/>
  <rect x="790" y="380" width="180" height="100" rx="16" fill="#0f172a" stroke="#223154"/>
  <circle cx="880" cy="430" r="18" fill="#22d3ee"/>
</svg>

